<svg
  xmlns="http://www.w3.org/2000/svg"
  viewBox="0 0 222 222"
  role="img"
  aria-labelledby="chapters-qr-title"
>
  <title id="chapters-qr-title">章別原稿の QR コード</title>
  <rect fill="#ffffff" width="222" height="222" />
  <path
    fill="#0f3138"
    d="M12,12h6v6h-6zM18,12h6v6h-6zM24,12h6v6h-6zM30,12h6v6h-6zM36,12h6v6h-6zM42,12h6v6h-6zM48,12h6v6h-6zM60,12h6v6h-6zM78,12h6v6h-6zM84,12h6v6h-6zM90,12h6v6h-6zM96,12h6v6h-6zM120,12h6v6h-6zM144,12h6v6h-6zM168,12h6v6h-6zM174,12h6v6h-6zM180,12h6v6h-6zM186,12h6v6h-6zM192,12h6v6h-6zM198,12h6v6h-6zM204,12h6v6h-6zM12,18h6v6h-6zM48,18h6v6h-6zM66,18h6v6h-6zM72,18h6v6h-6zM90,18h6v6h-6zM126,18h6v6h-6zM168,18h6v6h-6zM204,18h6v6h-6zM12,24h6v6h-6zM24,24h6v6h-6zM30,24h6v6h-6zM36,24h6v6h-6zM48,24h6v6h-6zM72,24h6v6h-6zM84,24h6v6h-6zM90,24h6v6h-6zM96,24h6v6h-6zM102,24h6v6h-6zM108,24h6v6h-6zM126,24h6v6h-6zM132,24h6v6h-6zM138,24h6v6h-6zM150,24h6v6h-6zM168,24h6v6h-6zM180,24h6v6h-6zM186,24h6v6h-6zM192,24h6v6h-6zM204,24h6v6h-6zM12,30h6v6h-6zM24,30h6v6h-6zM30,30h6v6h-6zM36,30h6v6h-6zM48,30h6v6h-6zM84,30h6v6h-6zM90,30h6v6h-6zM102,30h6v6h-6zM108,30h6v6h-6zM114,30h6v6h-6zM132,30h6v6h-6zM138,30h6v6h-6zM156,30h6v6h-6zM168,30h6v6h-6zM180,30h6v6h-6zM186,30h6v6h-6zM192,30h6v6h-6zM204,30h6v6h-6zM12,36h6v6h-6zM24,36h6v6h-6zM30,36h6v6h-6zM36,36h6v6h-6zM48,36h6v6h-6zM66,36h6v6h-6zM78,36h6v6h-6zM90,36h6v6h-6zM96,36h6v6h-6zM108,36h6v6h-6zM120,36h6v6h-6zM126,36h6v6h-6zM138,36h6v6h-6zM144,36h6v6h-6zM168,36h6v6h-6zM180,36h6v6h-6zM186,36h6v6h-6zM192,36h6v6h-6zM204,36h6v6h-6zM12,42h6v6h-6zM48,42h6v6h-6zM72,42h6v6h-6zM84,42h6v6h-6zM90,42h6v6h-6zM96,42h6v6h-6zM108,42h6v6h-6zM114,42h6v6h-6zM120,42h6v6h-6zM132,42h6v6h-6zM150,42h6v6h-6zM156,42h6v6h-6zM168,42h6v6h-6zM204,42h6v6h-6zM12,48h6v6h-6zM18,48h6v6h-6zM24,48h6v6h-6zM30,48h6v6h-6zM36,48h6v6h-6zM42,48h6v6h-6zM48,48h6v6h-6zM60,48h6v6h-6zM72,48h6v6h-6zM84,48h6v6h-6zM96,48h6v6h-6zM108,48h6v6h-6zM120,48h6v6h-6zM132,48h6v6h-6zM144,48h6v6h-6zM156,48h6v6h-6zM168,48h6v6h-6zM174,48h6v6h-6zM180,48h6v6h-6zM186,48h6v6h-6zM192,48h6v6h-6zM198,48h6v6h-6zM204,48h6v6h-6zM60,54h6v6h-6zM72,54h6v6h-6zM78,54h6v6h-6zM90,54h6v6h-6zM108,54h6v6h-6zM132,54h6v6h-6zM150,54h6v6h-6zM12,60h6v6h-6zM18,60h6v6h-6zM30,60h6v6h-6zM36,60h6v6h-6zM48,60h6v6h-6zM66,60h6v6h-6zM72,60h6v6h-6zM78,60h6v6h-6zM84,60h6v6h-6zM96,60h6v6h-6zM102,60h6v6h-6zM114,60h6v6h-6zM126,60h6v6h-6zM132,60h6v6h-6zM150,60h6v6h-6zM156,60h6v6h-6zM168,60h6v6h-6zM204,60h6v6h-6zM18,66h6v6h-6zM24,66h6v6h-6zM42,66h6v6h-6zM54,66h6v6h-6zM60,66h6v6h-6zM66,66h6v6h-6zM84,66h6v6h-6zM102,66h6v6h-6zM114,66h6v6h-6zM120,66h6v6h-6zM126,66h6v6h-6zM138,66h6v6h-6zM144,66h6v6h-6zM150,66h6v6h-6zM156,66h6v6h-6zM174,66h6v6h-6zM180,66h6v6h-6zM192,66h6v6h-6zM198,66h6v6h-6zM12,72h6v6h-6zM36,72h6v6h-6zM42,72h6v6h-6zM48,72h6v6h-6zM72,72h6v6h-6zM78,72h6v6h-6zM90,72h6v6h-6zM96,72h6v6h-6zM102,72h6v6h-6zM108,72h6v6h-6zM138,72h6v6h-6zM150,72h6v6h-6zM180,72h6v6h-6zM198,72h6v6h-6zM204,72h6v6h-6zM24,78h6v6h-6zM30,78h6v6h-6zM60,78h6v6h-6zM66,78h6v6h-6zM72,78h6v6h-6zM114,78h6v6h-6zM120,78h6v6h-6zM132,78h6v6h-6zM144,78h6v6h-6zM150,78h6v6h-6zM156,78h6v6h-6zM162,78h6v6h-6zM186,78h6v6h-6zM192,78h6v6h-6zM12,84h6v6h-6zM18,84h6v6h-6zM24,84h6v6h-6zM36,84h6v6h-6zM42,84h6v6h-6zM48,84h6v6h-6zM60,84h6v6h-6zM66,84h6v6h-6zM84,84h6v6h-6zM108,84h6v6h-6zM132,84h6v6h-6zM156,84h6v6h-6zM162,84h6v6h-6zM168,84h6v6h-6zM174,84h6v6h-6zM198,84h6v6h-6zM204,84h6v6h-6zM18,90h6v6h-6zM30,90h6v6h-6zM42,90h6v6h-6zM54,90h6v6h-6zM60,90h6v6h-6zM66,90h6v6h-6zM78,90h6v6h-6zM84,90h6v6h-6zM102,90h6v6h-6zM120,90h6v6h-6zM132,90h6v6h-6zM144,90h6v6h-6zM150,90h6v6h-6zM162,90h6v6h-6zM174,90h6v6h-6zM12,96h6v6h-6zM18,96h6v6h-6zM24,96h6v6h-6zM30,96h6v6h-6zM42,96h6v6h-6zM48,96h6v6h-6zM72,96h6v6h-6zM90,96h6v6h-6zM102,96h6v6h-6zM120,96h6v6h-6zM126,96h6v6h-6zM138,96h6v6h-6zM168,96h6v6h-6zM180,96h6v6h-6zM24,102h6v6h-6zM36,102h6v6h-6zM42,102h6v6h-6zM54,102h6v6h-6zM72,102h6v6h-6zM78,102h6v6h-6zM84,102h6v6h-6zM126,102h6v6h-6zM150,102h6v6h-6zM156,102h6v6h-6zM162,102h6v6h-6zM168,102h6v6h-6zM174,102h6v6h-6zM180,102h6v6h-6zM192,102h6v6h-6zM204,102h6v6h-6zM12,108h6v6h-6zM30,108h6v6h-6zM42,108h6v6h-6zM48,108h6v6h-6zM54,108h6v6h-6zM60,108h6v6h-6zM66,108h6v6h-6zM72,108h6v6h-6zM78,108h6v6h-6zM90,108h6v6h-6zM96,108h6v6h-6zM102,108h6v6h-6zM132,108h6v6h-6zM144,108h6v6h-6zM156,108h6v6h-6zM162,108h6v6h-6zM168,108h6v6h-6zM180,108h6v6h-6zM186,108h6v6h-6zM198,108h6v6h-6zM204,108h6v6h-6zM12,114h6v6h-6zM42,114h6v6h-6zM60,114h6v6h-6zM66,114h6v6h-6zM72,114h6v6h-6zM90,114h6v6h-6zM102,114h6v6h-6zM114,114h6v6h-6zM126,114h6v6h-6zM132,114h6v6h-6zM144,114h6v6h-6zM162,114h6v6h-6zM168,114h6v6h-6zM174,114h6v6h-6zM180,114h6v6h-6zM198,114h6v6h-6zM204,114h6v6h-6zM18,120h6v6h-6zM24,120h6v6h-6zM36,120h6v6h-6zM42,120h6v6h-6zM48,120h6v6h-6zM54,120h6v6h-6zM66,120h6v6h-6zM78,120h6v6h-6zM84,120h6v6h-6zM102,120h6v6h-6zM108,120h6v6h-6zM120,120h6v6h-6zM126,120h6v6h-6zM132,120h6v6h-6zM144,120h6v6h-6zM150,120h6v6h-6zM162,120h6v6h-6zM180,120h6v6h-6zM204,120h6v6h-6zM18,126h6v6h-6zM36,126h6v6h-6zM54,126h6v6h-6zM78,126h6v6h-6zM84,126h6v6h-6zM90,126h6v6h-6zM102,126h6v6h-6zM120,126h6v6h-6zM126,126h6v6h-6zM156,126h6v6h-6zM168,126h6v6h-6zM180,126h6v6h-6zM192,126h6v6h-6zM198,126h6v6h-6zM204,126h6v6h-6zM12,132h6v6h-6zM18,132h6v6h-6zM48,132h6v6h-6zM60,132h6v6h-6zM66,132h6v6h-6zM72,132h6v6h-6zM96,132h6v6h-6zM102,132h6v6h-6zM114,132h6v6h-6zM120,132h6v6h-6zM144,132h6v6h-6zM156,132h6v6h-6zM12,138h6v6h-6zM36,138h6v6h-6zM42,138h6v6h-6zM54,138h6v6h-6zM60,138h6v6h-6zM78,138h6v6h-6zM96,138h6v6h-6zM102,138h6v6h-6zM114,138h6v6h-6zM120,138h6v6h-6zM126,138h6v6h-6zM138,138h6v6h-6zM144,138h6v6h-6zM150,138h6v6h-6zM174,138h6v6h-6zM180,138h6v6h-6zM186,138h6v6h-6zM198,138h6v6h-6zM12,144h6v6h-6zM24,144h6v6h-6zM48,144h6v6h-6zM60,144h6v6h-6zM78,144h6v6h-6zM90,144h6v6h-6zM96,144h6v6h-6zM102,144h6v6h-6zM108,144h6v6h-6zM114,144h6v6h-6zM144,144h6v6h-6zM150,144h6v6h-6zM168,144h6v6h-6zM198,144h6v6h-6zM204,144h6v6h-6zM12,150h6v6h-6zM36,150h6v6h-6zM54,150h6v6h-6zM60,150h6v6h-6zM72,150h6v6h-6zM78,150h6v6h-6zM96,150h6v6h-6zM114,150h6v6h-6zM132,150h6v6h-6zM144,150h6v6h-6zM156,150h6v6h-6zM162,150h6v6h-6zM174,150h6v6h-6zM180,150h6v6h-6zM192,150h6v6h-6zM12,156h6v6h-6zM18,156h6v6h-6zM30,156h6v6h-6zM36,156h6v6h-6zM48,156h6v6h-6zM54,156h6v6h-6zM72,156h6v6h-6zM78,156h6v6h-6zM84,156h6v6h-6zM102,156h6v6h-6zM126,156h6v6h-6zM132,156h6v6h-6zM150,156h6v6h-6zM156,156h6v6h-6zM162,156h6v6h-6zM168,156h6v6h-6zM174,156h6v6h-6zM180,156h6v6h-6zM198,156h6v6h-6zM60,162h6v6h-6zM66,162h6v6h-6zM78,162h6v6h-6zM96,162h6v6h-6zM102,162h6v6h-6zM108,162h6v6h-6zM114,162h6v6h-6zM120,162h6v6h-6zM138,162h6v6h-6zM150,162h6v6h-6zM156,162h6v6h-6zM180,162h6v6h-6zM186,162h6v6h-6zM192,162h6v6h-6zM198,162h6v6h-6zM12,168h6v6h-6zM18,168h6v6h-6zM24,168h6v6h-6zM30,168h6v6h-6zM36,168h6v6h-6zM42,168h6v6h-6zM48,168h6v6h-6zM66,168h6v6h-6zM84,168h6v6h-6zM90,168h6v6h-6zM102,168h6v6h-6zM126,168h6v6h-6zM132,168h6v6h-6zM138,168h6v6h-6zM144,168h6v6h-6zM150,168h6v6h-6zM156,168h6v6h-6zM168,168h6v6h-6zM180,168h6v6h-6zM192,168h6v6h-6zM12,174h6v6h-6zM48,174h6v6h-6zM66,174h6v6h-6zM96,174h6v6h-6zM102,174h6v6h-6zM108,174h6v6h-6zM126,174h6v6h-6zM132,174h6v6h-6zM150,174h6v6h-6zM156,174h6v6h-6zM180,174h6v6h-6zM186,174h6v6h-6zM192,174h6v6h-6zM198,174h6v6h-6zM204,174h6v6h-6zM12,180h6v6h-6zM24,180h6v6h-6zM30,180h6v6h-6zM36,180h6v6h-6zM48,180h6v6h-6zM60,180h6v6h-6zM78,180h6v6h-6zM90,180h6v6h-6zM102,180h6v6h-6zM108,180h6v6h-6zM144,180h6v6h-6zM150,180h6v6h-6zM156,180h6v6h-6zM162,180h6v6h-6zM168,180h6v6h-6zM174,180h6v6h-6zM180,180h6v6h-6zM186,180h6v6h-6zM12,186h6v6h-6zM24,186h6v6h-6zM30,186h6v6h-6zM36,186h6v6h-6zM48,186h6v6h-6zM60,186h6v6h-6zM66,186h6v6h-6zM72,186h6v6h-6zM102,186h6v6h-6zM114,186h6v6h-6zM120,186h6v6h-6zM126,186h6v6h-6zM132,186h6v6h-6zM138,186h6v6h-6zM144,186h6v6h-6zM156,186h6v6h-6zM162,186h6v6h-6zM174,186h6v6h-6zM192,186h6v6h-6zM12,192h6v6h-6zM24,192h6v6h-6zM30,192h6v6h-6zM36,192h6v6h-6zM48,192h6v6h-6zM66,192h6v6h-6zM72,192h6v6h-6zM78,192h6v6h-6zM84,192h6v6h-6zM90,192h6v6h-6zM96,192h6v6h-6zM102,192h6v6h-6zM114,192h6v6h-6zM126,192h6v6h-6zM150,192h6v6h-6zM156,192h6v6h-6zM162,192h6v6h-6zM180,192h6v6h-6zM192,192h6v6h-6zM204,192h6v6h-6zM12,198h6v6h-6zM48,198h6v6h-6zM60,198h6v6h-6zM72,198h6v6h-6zM84,198h6v6h-6zM90,198h6v6h-6zM144,198h6v6h-6zM180,198h6v6h-6zM186,198h6v6h-6zM192,198h6v6h-6zM198,198h6v6h-6zM204,198h6v6h-6zM12,204h6v6h-6zM18,204h6v6h-6zM24,204h6v6h-6zM30,204h6v6h-6zM36,204h6v6h-6zM42,204h6v6h-6zM48,204h6v6h-6zM60,204h6v6h-6zM66,204h6v6h-6zM96,204h6v6h-6zM102,204h6v6h-6zM108,204h6v6h-6zM114,204h6v6h-6zM144,204h6v6h-6zM150,204h6v6h-6zM156,204h6v6h-6zM174,204h6v6h-6zM180,204h6v6h-6zM186,204h6v6h-6z"
  />
</svg>
