<svg
  xmlns="http://www.w3.org/2000/svg"
  viewBox="0 0 222 222"
  role="img"
  aria-labelledby="slides-qr-title"
>
  <title id="slides-qr-title">本スライドの QR コード</title>
  <rect fill="#ffffff" width="222" height="222" />
  <path
    fill="#0f3138"
    d="M12,12h6v6h-6zM18,12h6v6h-6zM24,12h6v6h-6zM30,12h6v6h-6zM36,12h6v6h-6zM42,12h6v6h-6zM48,12h6v6h-6zM66,12h6v6h-6zM108,12h6v6h-6zM114,12h6v6h-6zM120,12h6v6h-6zM126,12h6v6h-6zM132,12h6v6h-6zM150,12h6v6h-6zM168,12h6v6h-6zM174,12h6v6h-6zM180,12h6v6h-6zM186,12h6v6h-6zM192,12h6v6h-6zM198,12h6v6h-6zM204,12h6v6h-6zM12,18h6v6h-6zM48,18h6v6h-6zM60,18h6v6h-6zM66,18h6v6h-6zM78,18h6v6h-6zM84,18h6v6h-6zM96,18h6v6h-6zM102,18h6v6h-6zM132,18h6v6h-6zM138,18h6v6h-6zM168,18h6v6h-6zM204,18h6v6h-6zM12,24h6v6h-6zM24,24h6v6h-6zM30,24h6v6h-6zM36,24h6v6h-6zM48,24h6v6h-6zM66,24h6v6h-6zM72,24h6v6h-6zM78,24h6v6h-6zM96,24h6v6h-6zM102,24h6v6h-6zM132,24h6v6h-6zM138,24h6v6h-6zM144,24h6v6h-6zM150,24h6v6h-6zM168,24h6v6h-6zM180,24h6v6h-6zM186,24h6v6h-6zM192,24h6v6h-6zM204,24h6v6h-6zM12,30h6v6h-6zM24,30h6v6h-6zM30,30h6v6h-6zM36,30h6v6h-6zM48,30h6v6h-6zM60,30h6v6h-6zM66,30h6v6h-6zM78,30h6v6h-6zM90,30h6v6h-6zM96,30h6v6h-6zM114,30h6v6h-6zM144,30h6v6h-6zM156,30h6v6h-6zM168,30h6v6h-6zM180,30h6v6h-6zM186,30h6v6h-6zM192,30h6v6h-6zM204,30h6v6h-6zM12,36h6v6h-6zM24,36h6v6h-6zM30,36h6v6h-6zM36,36h6v6h-6zM48,36h6v6h-6zM72,36h6v6h-6zM84,36h6v6h-6zM90,36h6v6h-6zM108,36h6v6h-6zM114,36h6v6h-6zM120,36h6v6h-6zM126,36h6v6h-6zM132,36h6v6h-6zM138,36h6v6h-6zM144,36h6v6h-6zM150,36h6v6h-6zM168,36h6v6h-6zM180,36h6v6h-6zM186,36h6v6h-6zM192,36h6v6h-6zM204,36h6v6h-6zM12,42h6v6h-6zM48,42h6v6h-6zM60,42h6v6h-6zM72,42h6v6h-6zM90,42h6v6h-6zM96,42h6v6h-6zM102,42h6v6h-6zM120,42h6v6h-6zM132,42h6v6h-6zM138,42h6v6h-6zM144,42h6v6h-6zM156,42h6v6h-6zM168,42h6v6h-6zM204,42h6v6h-6zM12,48h6v6h-6zM18,48h6v6h-6zM24,48h6v6h-6zM30,48h6v6h-6zM36,48h6v6h-6zM42,48h6v6h-6zM48,48h6v6h-6zM60,48h6v6h-6zM72,48h6v6h-6zM84,48h6v6h-6zM96,48h6v6h-6zM108,48h6v6h-6zM120,48h6v6h-6zM132,48h6v6h-6zM144,48h6v6h-6zM156,48h6v6h-6zM168,48h6v6h-6zM174,48h6v6h-6zM180,48h6v6h-6zM186,48h6v6h-6zM192,48h6v6h-6zM198,48h6v6h-6zM204,48h6v6h-6zM84,54h6v6h-6zM96,54h6v6h-6zM102,54h6v6h-6zM108,54h6v6h-6zM126,54h6v6h-6zM138,54h6v6h-6zM150,54h6v6h-6zM12,60h6v6h-6zM18,60h6v6h-6zM24,60h6v6h-6zM30,60h6v6h-6zM36,60h6v6h-6zM48,60h6v6h-6zM54,60h6v6h-6zM60,60h6v6h-6zM66,60h6v6h-6zM72,60h6v6h-6zM84,60h6v6h-6zM90,60h6v6h-6zM96,60h6v6h-6zM102,60h6v6h-6zM108,60h6v6h-6zM114,60h6v6h-6zM132,60h6v6h-6zM144,60h6v6h-6zM150,60h6v6h-6zM156,60h6v6h-6zM162,60h6v6h-6zM174,60h6v6h-6zM186,60h6v6h-6zM198,60h6v6h-6zM24,66h6v6h-6zM30,66h6v6h-6zM36,66h6v6h-6zM54,66h6v6h-6zM66,66h6v6h-6zM96,66h6v6h-6zM108,66h6v6h-6zM114,66h6v6h-6zM120,66h6v6h-6zM126,66h6v6h-6zM132,66h6v6h-6zM150,66h6v6h-6zM156,66h6v6h-6zM168,66h6v6h-6zM192,66h6v6h-6zM198,66h6v6h-6zM204,66h6v6h-6zM30,72h6v6h-6zM36,72h6v6h-6zM48,72h6v6h-6zM54,72h6v6h-6zM66,72h6v6h-6zM78,72h6v6h-6zM84,72h6v6h-6zM90,72h6v6h-6zM102,72h6v6h-6zM108,72h6v6h-6zM114,72h6v6h-6zM132,72h6v6h-6zM138,72h6v6h-6zM168,72h6v6h-6zM180,72h6v6h-6zM186,72h6v6h-6zM198,72h6v6h-6zM12,78h6v6h-6zM42,78h6v6h-6zM54,78h6v6h-6zM66,78h6v6h-6zM72,78h6v6h-6zM78,78h6v6h-6zM102,78h6v6h-6zM108,78h6v6h-6zM120,78h6v6h-6zM132,78h6v6h-6zM138,78h6v6h-6zM156,78h6v6h-6zM162,78h6v6h-6zM174,78h6v6h-6zM180,78h6v6h-6zM192,78h6v6h-6zM24,84h6v6h-6zM30,84h6v6h-6zM48,84h6v6h-6zM60,84h6v6h-6zM66,84h6v6h-6zM78,84h6v6h-6zM90,84h6v6h-6zM96,84h6v6h-6zM114,84h6v6h-6zM126,84h6v6h-6zM144,84h6v6h-6zM150,84h6v6h-6zM156,84h6v6h-6zM174,84h6v6h-6zM180,84h6v6h-6zM186,84h6v6h-6zM12,90h6v6h-6zM18,90h6v6h-6zM36,90h6v6h-6zM42,90h6v6h-6zM54,90h6v6h-6zM72,90h6v6h-6zM84,90h6v6h-6zM90,90h6v6h-6zM96,90h6v6h-6zM120,90h6v6h-6zM126,90h6v6h-6zM138,90h6v6h-6zM144,90h6v6h-6zM150,90h6v6h-6zM168,90h6v6h-6zM198,90h6v6h-6zM204,90h6v6h-6zM12,96h6v6h-6zM18,96h6v6h-6zM24,96h6v6h-6zM36,96h6v6h-6zM48,96h6v6h-6zM54,96h6v6h-6zM60,96h6v6h-6zM102,96h6v6h-6zM108,96h6v6h-6zM120,96h6v6h-6zM138,96h6v6h-6zM144,96h6v6h-6zM162,96h6v6h-6zM168,96h6v6h-6zM198,96h6v6h-6zM12,102h6v6h-6zM18,102h6v6h-6zM24,102h6v6h-6zM36,102h6v6h-6zM60,102h6v6h-6zM84,102h6v6h-6zM96,102h6v6h-6zM102,102h6v6h-6zM108,102h6v6h-6zM126,102h6v6h-6zM132,102h6v6h-6zM138,102h6v6h-6zM144,102h6v6h-6zM150,102h6v6h-6zM156,102h6v6h-6zM162,102h6v6h-6zM192,102h6v6h-6zM24,108h6v6h-6zM48,108h6v6h-6zM54,108h6v6h-6zM60,108h6v6h-6zM84,108h6v6h-6zM90,108h6v6h-6zM102,108h6v6h-6zM114,108h6v6h-6zM144,108h6v6h-6zM150,108h6v6h-6zM156,108h6v6h-6zM162,108h6v6h-6zM180,108h6v6h-6zM198,108h6v6h-6zM12,114h6v6h-6zM18,114h6v6h-6zM36,114h6v6h-6zM42,114h6v6h-6zM66,114h6v6h-6zM90,114h6v6h-6zM108,114h6v6h-6zM126,114h6v6h-6zM132,114h6v6h-6zM138,114h6v6h-6zM150,114h6v6h-6zM162,114h6v6h-6zM168,114h6v6h-6zM186,114h6v6h-6zM198,114h6v6h-6zM204,114h6v6h-6zM24,120h6v6h-6zM30,120h6v6h-6zM48,120h6v6h-6zM54,120h6v6h-6zM60,120h6v6h-6zM66,120h6v6h-6zM78,120h6v6h-6zM84,120h6v6h-6zM90,120h6v6h-6zM96,120h6v6h-6zM102,120h6v6h-6zM114,120h6v6h-6zM120,120h6v6h-6zM168,120h6v6h-6zM186,120h6v6h-6zM198,120h6v6h-6zM12,126h6v6h-6zM24,126h6v6h-6zM30,126h6v6h-6zM36,126h6v6h-6zM42,126h6v6h-6zM54,126h6v6h-6zM78,126h6v6h-6zM96,126h6v6h-6zM120,126h6v6h-6zM132,126h6v6h-6zM138,126h6v6h-6zM156,126h6v6h-6zM162,126h6v6h-6zM174,126h6v6h-6zM180,126h6v6h-6zM192,126h6v6h-6zM12,132h6v6h-6zM24,132h6v6h-6zM36,132h6v6h-6zM42,132h6v6h-6zM48,132h6v6h-6zM54,132h6v6h-6zM60,132h6v6h-6zM78,132h6v6h-6zM102,132h6v6h-6zM108,132h6v6h-6zM114,132h6v6h-6zM120,132h6v6h-6zM126,132h6v6h-6zM156,132h6v6h-6zM162,132h6v6h-6zM180,132h6v6h-6zM198,132h6v6h-6zM12,138h6v6h-6zM24,138h6v6h-6zM42,138h6v6h-6zM54,138h6v6h-6zM60,138h6v6h-6zM66,138h6v6h-6zM84,138h6v6h-6zM90,138h6v6h-6zM108,138h6v6h-6zM114,138h6v6h-6zM120,138h6v6h-6zM126,138h6v6h-6zM132,138h6v6h-6zM150,138h6v6h-6zM168,138h6v6h-6zM186,138h6v6h-6zM198,138h6v6h-6zM204,138h6v6h-6zM12,144h6v6h-6zM36,144h6v6h-6zM48,144h6v6h-6zM54,144h6v6h-6zM60,144h6v6h-6zM66,144h6v6h-6zM72,144h6v6h-6zM90,144h6v6h-6zM96,144h6v6h-6zM102,144h6v6h-6zM108,144h6v6h-6zM132,144h6v6h-6zM144,144h6v6h-6zM186,144h6v6h-6zM198,144h6v6h-6zM12,150h6v6h-6zM36,150h6v6h-6zM54,150h6v6h-6zM60,150h6v6h-6zM84,150h6v6h-6zM90,150h6v6h-6zM102,150h6v6h-6zM108,150h6v6h-6zM132,150h6v6h-6zM138,150h6v6h-6zM150,150h6v6h-6zM156,150h6v6h-6zM162,150h6v6h-6zM186,150h6v6h-6zM192,150h6v6h-6zM12,156h6v6h-6zM24,156h6v6h-6zM30,156h6v6h-6zM42,156h6v6h-6zM48,156h6v6h-6zM54,156h6v6h-6zM84,156h6v6h-6zM96,156h6v6h-6zM102,156h6v6h-6zM108,156h6v6h-6zM114,156h6v6h-6zM144,156h6v6h-6zM156,156h6v6h-6zM162,156h6v6h-6zM168,156h6v6h-6zM174,156h6v6h-6zM180,156h6v6h-6zM186,156h6v6h-6zM204,156h6v6h-6zM60,162h6v6h-6zM108,162h6v6h-6zM114,162h6v6h-6zM120,162h6v6h-6zM126,162h6v6h-6zM132,162h6v6h-6zM150,162h6v6h-6zM156,162h6v6h-6zM180,162h6v6h-6zM186,162h6v6h-6zM192,162h6v6h-6zM204,162h6v6h-6zM12,168h6v6h-6zM18,168h6v6h-6zM24,168h6v6h-6zM30,168h6v6h-6zM36,168h6v6h-6zM42,168h6v6h-6zM48,168h6v6h-6zM60,168h6v6h-6zM66,168h6v6h-6zM78,168h6v6h-6zM84,168h6v6h-6zM102,168h6v6h-6zM108,168h6v6h-6zM132,168h6v6h-6zM138,168h6v6h-6zM150,168h6v6h-6zM156,168h6v6h-6zM168,168h6v6h-6zM180,168h6v6h-6zM192,168h6v6h-6zM198,168h6v6h-6zM12,174h6v6h-6zM48,174h6v6h-6zM78,174h6v6h-6zM96,174h6v6h-6zM126,174h6v6h-6zM138,174h6v6h-6zM144,174h6v6h-6zM150,174h6v6h-6zM156,174h6v6h-6zM180,174h6v6h-6zM186,174h6v6h-6zM192,174h6v6h-6zM12,180h6v6h-6zM24,180h6v6h-6zM30,180h6v6h-6zM36,180h6v6h-6zM48,180h6v6h-6zM60,180h6v6h-6zM72,180h6v6h-6zM78,180h6v6h-6zM102,180h6v6h-6zM108,180h6v6h-6zM114,180h6v6h-6zM132,180h6v6h-6zM144,180h6v6h-6zM156,180h6v6h-6zM162,180h6v6h-6zM168,180h6v6h-6zM174,180h6v6h-6zM180,180h6v6h-6zM12,186h6v6h-6zM24,186h6v6h-6zM30,186h6v6h-6zM36,186h6v6h-6zM48,186h6v6h-6zM60,186h6v6h-6zM84,186h6v6h-6zM90,186h6v6h-6zM96,186h6v6h-6zM108,186h6v6h-6zM120,186h6v6h-6zM126,186h6v6h-6zM132,186h6v6h-6zM150,186h6v6h-6zM156,186h6v6h-6zM162,186h6v6h-6zM180,186h6v6h-6zM186,186h6v6h-6zM192,186h6v6h-6zM12,192h6v6h-6zM24,192h6v6h-6zM30,192h6v6h-6zM36,192h6v6h-6zM48,192h6v6h-6zM60,192h6v6h-6zM66,192h6v6h-6zM72,192h6v6h-6zM90,192h6v6h-6zM96,192h6v6h-6zM102,192h6v6h-6zM108,192h6v6h-6zM132,192h6v6h-6zM144,192h6v6h-6zM156,192h6v6h-6zM168,192h6v6h-6zM186,192h6v6h-6zM192,192h6v6h-6zM198,192h6v6h-6zM12,198h6v6h-6zM48,198h6v6h-6zM60,198h6v6h-6zM66,198h6v6h-6zM72,198h6v6h-6zM84,198h6v6h-6zM90,198h6v6h-6zM102,198h6v6h-6zM126,198h6v6h-6zM132,198h6v6h-6zM138,198h6v6h-6zM144,198h6v6h-6zM162,198h6v6h-6zM168,198h6v6h-6zM174,198h6v6h-6zM180,198h6v6h-6zM186,198h6v6h-6zM192,198h6v6h-6zM12,204h6v6h-6zM18,204h6v6h-6zM24,204h6v6h-6zM30,204h6v6h-6zM36,204h6v6h-6zM42,204h6v6h-6zM48,204h6v6h-6zM60,204h6v6h-6zM66,204h6v6h-6zM84,204h6v6h-6zM96,204h6v6h-6zM102,204h6v6h-6zM114,204h6v6h-6zM126,204h6v6h-6zM150,204h6v6h-6zM156,204h6v6h-6zM162,204h6v6h-6zM174,204h6v6h-6zM186,204h6v6h-6zM198,204h6v6h-6z"
  />
</svg>
